<svg width="343" height="343" viewBox="0 0 343 343" fill="none" xmlns="http://www.w3.org/2000/svg">
<g clip-path="url(#clip0_265_4)">
<circle cx="172" cy="172" r="148" fill="black"/>
<path d="M171.5 343C266.227 343 343 266.227 343 171.5C343 76.7731 266.227 0 171.5 0C76.7731 0 0 76.7731 0 171.5C0 266.227 76.7731 343 171.5 343ZM144.703 225.094H160.781V182.219H144.703C135.793 182.219 128.625 175.051 128.625 166.141C128.625 157.231 135.793 150.062 144.703 150.062H176.859C185.769 150.062 192.938 157.231 192.938 166.141V225.094H198.297C207.207 225.094 214.375 232.262 214.375 241.172C214.375 250.082 207.207 257.25 198.297 257.25H144.703C135.793 257.25 128.625 250.082 128.625 241.172C128.625 232.262 135.793 225.094 144.703 225.094ZM171.5 128.625C159.642 128.625 150.062 119.045 150.062 107.188C150.062 95.3299 159.642 85.75 171.5 85.75C183.358 85.75 192.938 95.3299 192.938 107.188C192.938 119.045 183.358 128.625 171.5 128.625Z" fill="white"/>
</g>
<defs>
<clipPath id="clip0_265_4">
<rect width="343" height="343" fill="white"/>
</clipPath>
</defs>
</svg>
