<svg width="126" height="159" viewBox="0 0 126 159" fill="none" xmlns="http://www.w3.org/2000/svg">
<path d="M33.4348 142.099C32.417 142.099 31.4984 141.901 30.679 141.504C29.8595 141.108 29.1523 140.573 28.5576 139.898C27.9628 139.211 27.5002 138.445 27.1697 137.599C26.8525 136.739 26.6939 135.861 26.6939 134.962C26.6939 134.023 26.8657 133.131 27.2094 132.285C27.553 131.426 28.0289 130.666 28.6369 130.005C29.2449 129.331 29.9586 128.802 30.7781 128.419C31.6108 128.023 32.5096 127.824 33.4744 127.824C34.479 127.824 35.391 128.029 36.2104 128.439C37.0431 128.849 37.7503 129.397 38.3318 130.085C38.9266 130.772 39.3826 131.538 39.6998 132.384C40.0303 133.23 40.1955 134.096 40.1955 134.982C40.1955 135.92 40.0237 136.819 39.68 137.678C39.3496 138.524 38.8803 139.284 38.2723 139.958C37.6643 140.619 36.944 141.141 36.1113 141.524C35.2918 141.907 34.3997 142.099 33.4348 142.099ZM28.9541 134.962C28.9541 135.623 29.0598 136.264 29.2713 136.885C29.4828 137.506 29.7802 138.061 30.1635 138.55C30.56 139.026 31.0358 139.403 31.591 139.68C32.1461 139.958 32.7673 140.097 33.4546 140.097C34.1683 140.097 34.8028 139.951 35.3579 139.661C35.913 139.37 36.3757 138.98 36.7457 138.491C37.129 137.989 37.4198 137.433 37.6181 136.825C37.8163 136.204 37.9155 135.583 37.9155 134.962C37.9155 134.301 37.8097 133.666 37.5983 133.058C37.4 132.437 37.1026 131.889 36.7061 131.413C36.3096 130.924 35.8337 130.541 35.2786 130.263C34.7367 129.985 34.1287 129.847 33.4546 129.847C32.7409 129.847 32.1064 129.992 31.5513 130.283C30.9962 130.574 30.527 130.963 30.1437 131.453C29.7603 131.942 29.463 132.49 29.2515 133.098C29.0532 133.706 28.9541 134.327 28.9541 134.962ZM48.3431 142.099C47.3253 142.099 46.4067 141.901 45.5872 141.504C44.7678 141.108 44.0606 140.573 43.4659 139.898C42.8711 139.211 42.4085 138.445 42.078 137.599C41.7608 136.739 41.6022 135.861 41.6022 134.962C41.6022 134.023 41.774 133.131 42.1177 132.285C42.4613 131.426 42.9372 130.666 43.5452 130.005C44.1532 129.331 44.8669 128.802 45.6864 128.419C46.5191 128.023 47.4179 127.824 48.3827 127.824C49.3872 127.824 50.2992 128.029 51.1187 128.439C51.9514 128.849 52.6585 129.397 53.2401 130.085C53.8349 130.772 54.2909 131.538 54.6081 132.384C54.9385 133.23 55.1038 134.096 55.1038 134.982C55.1038 135.92 54.9319 136.819 54.5883 137.678C54.2579 138.524 53.7886 139.284 53.1806 139.958C52.5726 140.619 51.8523 141.141 51.0196 141.524C50.2001 141.907 49.3079 142.099 48.3431 142.099ZM43.8624 134.962C43.8624 135.623 43.9681 136.264 44.1796 136.885C44.3911 137.506 44.6885 138.061 45.0718 138.55C45.4683 139.026 45.9441 139.403 46.4992 139.68C47.0544 139.958 47.6756 140.097 48.3629 140.097C49.0766 140.097 49.7111 139.951 50.2662 139.661C50.8213 139.37 51.2839 138.98 51.654 138.491C52.0373 137.989 52.3281 137.433 52.5264 136.825C52.7246 136.204 52.8238 135.583 52.8238 134.962C52.8238 134.301 52.718 133.666 52.5065 133.058C52.3083 132.437 52.0109 131.889 51.6144 131.413C51.2179 130.924 50.742 130.541 50.1869 130.263C49.645 129.985 49.037 129.847 48.3629 129.847C47.6492 129.847 47.0147 129.992 46.4596 130.283C45.9045 130.574 45.4352 130.963 45.0519 131.453C44.6686 131.942 44.3712 132.49 44.1598 133.098C43.9615 133.706 43.8624 134.327 43.8624 134.962ZM63.2514 142.099C62.2336 142.099 61.315 141.901 60.4955 141.504C59.6761 141.108 58.9689 140.573 58.3741 139.898C57.7794 139.211 57.3167 138.445 56.9863 137.599C56.6691 136.739 56.5105 135.861 56.5105 134.962C56.5105 134.023 56.6823 133.131 57.026 132.285C57.3696 131.426 57.8454 130.666 58.4534 130.005C59.0614 129.331 59.7752 128.802 60.5947 128.419C61.4274 128.023 62.3261 127.824 63.291 127.824C64.2955 127.824 65.2075 128.029 66.027 128.439C66.8597 128.849 67.5668 129.397 68.1484 130.085C68.7432 130.772 69.1992 131.538 69.5164 132.384C69.8468 133.23 70.0121 134.096 70.0121 134.982C70.0121 135.92 69.8402 136.819 69.4966 137.678C69.1661 138.524 68.6969 139.284 68.0889 139.958C67.4809 140.619 66.7606 141.141 65.9279 141.524C65.1084 141.907 64.2162 142.099 63.2514 142.099ZM58.7707 134.962C58.7707 135.623 58.8764 136.264 59.0879 136.885C59.2994 137.506 59.5967 138.061 59.9801 138.55C60.3766 139.026 60.8524 139.403 61.4075 139.68C61.9627 139.958 62.5839 140.097 63.2712 140.097C63.9849 140.097 64.6194 139.951 65.1745 139.661C65.7296 139.37 66.1922 138.98 66.5623 138.491C66.9456 137.989 67.2364 137.433 67.4347 136.825C67.6329 136.204 67.7321 135.583 67.7321 134.962C67.7321 134.301 67.6263 133.666 67.4148 133.058C67.2166 132.437 66.9192 131.889 66.5227 131.413C66.1261 130.924 65.6503 130.541 65.0952 130.263C64.5533 129.985 63.9453 129.847 63.2712 129.847C62.5574 129.847 61.923 129.992 61.3679 130.283C60.8127 130.574 60.3435 130.963 59.9602 131.453C59.5769 131.942 59.2795 132.49 59.0681 133.098C58.8698 133.706 58.7707 134.327 58.7707 134.962ZM72.3109 142V127.923H78.2191C78.8536 127.923 79.4351 128.056 79.9638 128.32C80.4925 128.584 80.9551 128.935 81.3516 129.371C81.7482 129.807 82.0522 130.296 82.2636 130.838C82.4751 131.38 82.5809 131.935 82.5809 132.503C82.5809 133.283 82.4024 134.03 82.0456 134.744C81.7019 135.444 81.2063 136.013 80.5586 136.449C79.9242 136.885 79.184 137.103 78.3381 137.103H74.5315V142H72.3109ZM74.5315 135.14H78.1993C78.6223 135.14 78.9923 135.028 79.3096 134.803C79.6268 134.565 79.8713 134.248 80.0431 133.851C80.2282 133.455 80.3207 133.006 80.3207 132.503C80.3207 131.988 80.2149 131.532 80.0035 131.135C79.792 130.739 79.5144 130.435 79.1708 130.223C78.8403 129.999 78.4769 129.886 78.0803 129.886H74.5315V135.14ZM92.9905 131.234C92.8583 131.089 92.6667 130.937 92.4155 130.778C92.1644 130.607 91.867 130.448 91.5234 130.303C91.1797 130.157 90.8096 130.038 90.4131 129.946C90.0166 129.853 89.6068 129.807 89.1839 129.807C88.2587 129.807 87.5714 129.979 87.122 130.322C86.6726 130.666 86.4479 131.142 86.4479 131.75C86.4479 132.199 86.5734 132.556 86.8246 132.821C87.0757 133.072 87.459 133.283 87.9745 133.455C88.49 133.627 89.1376 133.812 89.9174 134.01C90.8691 134.235 91.6952 134.506 92.3957 134.823C93.0962 135.127 93.6315 135.537 94.0016 136.052C94.3717 136.568 94.5567 137.248 94.5567 138.094C94.5567 138.808 94.4246 139.423 94.1602 139.938C93.8959 140.454 93.5258 140.877 93.05 141.207C92.5741 141.524 92.0256 141.762 91.4044 141.921C90.7832 142.066 90.1157 142.139 89.402 142.139C88.7014 142.139 88.0009 142.066 87.3004 141.921C86.6131 141.775 85.9522 141.564 85.3178 141.286C84.6966 140.995 84.1216 140.645 83.5929 140.235L84.6041 138.332C84.7759 138.504 85.0204 138.696 85.3376 138.907C85.6681 139.105 86.0447 139.297 86.4677 139.482C86.9039 139.667 87.3731 139.826 87.8754 139.958C88.3908 140.077 88.9129 140.136 89.4416 140.136C90.3272 140.136 91.0013 139.984 91.4639 139.68C91.9397 139.363 92.1776 138.914 92.1776 138.332C92.1776 137.856 92.0256 137.48 91.7216 137.202C91.4176 136.911 90.9748 136.667 90.3933 136.469C89.8117 136.27 89.1178 136.072 88.3115 135.874C87.3863 135.623 86.6131 135.352 85.9919 135.061C85.3707 134.757 84.9014 134.374 84.5842 133.911C84.2802 133.435 84.1282 132.834 84.1282 132.107C84.1282 131.182 84.3529 130.402 84.8023 129.767C85.2517 129.12 85.8597 128.637 86.6263 128.32C87.4061 127.99 88.2785 127.824 89.2434 127.824C89.8778 127.824 90.4792 127.897 91.0475 128.042C91.6159 128.175 92.1446 128.36 92.6336 128.598C93.1359 128.835 93.5919 129.106 94.0016 129.41L92.9905 131.234ZM96.9226 136.984V127.785H99.1034V136.984H96.9226ZM96.9226 142V139.284H99.1034V142H96.9226Z" fill="#A6A6A6"/>
<path d="M2.1 149.472V156H1.02V147.48H1.932L7.14 154.14V147.492H8.22V156H7.236L2.1 149.472ZM12.7169 156.12C12.2449 156.12 11.8169 156.036 11.4329 155.868C11.0489 155.692 10.7169 155.456 10.4369 155.16C10.1569 154.856 9.94091 154.508 9.78891 154.116C9.63691 153.724 9.56091 153.312 9.56091 152.88C9.56091 152.44 9.63691 152.024 9.78891 151.632C9.94091 151.24 10.1569 150.896 10.4369 150.6C10.7169 150.296 11.0489 150.06 11.4329 149.892C11.8249 149.716 12.2529 149.628 12.7169 149.628C13.1889 149.628 13.6169 149.716 14.0009 149.892C14.3849 150.06 14.7169 150.296 14.9969 150.6C15.2849 150.896 15.5049 151.24 15.6569 151.632C15.8089 152.024 15.8849 152.44 15.8849 152.88C15.8849 153.312 15.8089 153.724 15.6569 154.116C15.5049 154.508 15.2889 154.856 15.0089 155.16C14.7289 155.456 14.3929 155.692 14.0009 155.868C13.6169 156.036 13.1889 156.12 12.7169 156.12ZM10.6409 152.892C10.6409 153.324 10.7329 153.716 10.9169 154.068C11.1089 154.42 11.3609 154.7 11.6729 154.908C11.9849 155.108 12.3329 155.208 12.7169 155.208C13.1009 155.208 13.4489 155.104 13.7609 154.896C14.0809 154.688 14.3329 154.408 14.5169 154.056C14.7089 153.696 14.8049 153.3 14.8049 152.868C14.8049 152.436 14.7089 152.044 14.5169 151.692C14.3329 151.34 14.0809 151.06 13.7609 150.852C13.4489 150.644 13.1009 150.54 12.7169 150.54C12.3329 150.54 11.9849 150.648 11.6729 150.864C11.3609 151.072 11.1089 151.352 10.9169 151.704C10.7329 152.056 10.6409 152.452 10.6409 152.892ZM23.5717 156.12C23.0597 156.12 22.6037 155.992 22.2037 155.736C21.8037 155.48 21.4877 155.156 21.2557 154.764V158.556H20.1997V149.736H21.1357V150.912C21.3837 150.528 21.7077 150.22 22.1077 149.988C22.5077 149.748 22.9437 149.628 23.4157 149.628C23.8477 149.628 24.2437 149.716 24.6037 149.892C24.9637 150.068 25.2757 150.308 25.5397 150.612C25.8037 150.916 26.0077 151.264 26.1517 151.656C26.3037 152.04 26.3797 152.444 26.3797 152.868C26.3797 153.46 26.2597 154.004 26.0197 154.5C25.7877 154.996 25.4597 155.392 25.0357 155.688C24.6117 155.976 24.1237 156.12 23.5717 156.12ZM23.2477 155.208C23.5597 155.208 23.8397 155.144 24.0877 155.016C24.3437 154.88 24.5597 154.704 24.7357 154.488C24.9197 154.264 25.0597 154.012 25.1557 153.732C25.2517 153.452 25.2997 153.164 25.2997 152.868C25.2997 152.556 25.2437 152.26 25.1317 151.98C25.0277 151.7 24.8757 151.452 24.6757 151.236C24.4837 151.02 24.2557 150.852 23.9917 150.732C23.7357 150.604 23.4557 150.54 23.1517 150.54C22.9597 150.54 22.7597 150.576 22.5517 150.648C22.3517 150.72 22.1597 150.824 21.9757 150.96C21.7917 151.088 21.6357 151.236 21.5077 151.404C21.3797 151.572 21.2957 151.752 21.2557 151.944V153.732C21.3757 154.004 21.5357 154.252 21.7357 154.476C21.9357 154.7 22.1677 154.88 22.4317 155.016C22.6957 155.144 22.9677 155.208 23.2477 155.208ZM30.4122 156.12C29.9402 156.12 29.5122 156.036 29.1282 155.868C28.7442 155.692 28.4122 155.456 28.1322 155.16C27.8522 154.856 27.6362 154.508 27.4842 154.116C27.3322 153.724 27.2562 153.312 27.2562 152.88C27.2562 152.44 27.3322 152.024 27.4842 151.632C27.6362 151.24 27.8522 150.896 28.1322 150.6C28.4122 150.296 28.7442 150.06 29.1282 149.892C29.5202 149.716 29.9482 149.628 30.4122 149.628C30.8842 149.628 31.3122 149.716 31.6962 149.892C32.0802 150.06 32.4122 150.296 32.6922 150.6C32.9802 150.896 33.2002 151.24 33.3522 151.632C33.5042 152.024 33.5802 152.44 33.5802 152.88C33.5802 153.312 33.5042 153.724 33.3522 154.116C33.2002 154.508 32.9842 154.856 32.7042 155.16C32.4242 155.456 32.0882 155.692 31.6962 155.868C31.3122 156.036 30.8842 156.12 30.4122 156.12ZM28.3362 152.892C28.3362 153.324 28.4282 153.716 28.6122 154.068C28.8042 154.42 29.0562 154.7 29.3682 154.908C29.6802 155.108 30.0282 155.208 30.4122 155.208C30.7962 155.208 31.1442 155.104 31.4562 154.896C31.7762 154.688 32.0282 154.408 32.2122 154.056C32.4042 153.696 32.5002 153.3 32.5002 152.868C32.5002 152.436 32.4042 152.044 32.2122 151.692C32.0282 151.34 31.7762 151.06 31.4562 150.852C31.1442 150.644 30.7962 150.54 30.4122 150.54C30.0282 150.54 29.6802 150.648 29.3682 150.864C29.0562 151.072 28.8042 151.352 28.6122 151.704C28.4282 152.056 28.3362 152.452 28.3362 152.892ZM37.0078 156.12C36.4878 156.12 35.9998 156.036 35.5438 155.868C35.0878 155.692 34.6958 155.432 34.3678 155.088L34.7758 154.344C35.1358 154.68 35.4958 154.92 35.8558 155.064C36.2158 155.208 36.5838 155.28 36.9598 155.28C37.3918 155.28 37.7438 155.2 38.0158 155.04C38.2878 154.872 38.4238 154.628 38.4238 154.308C38.4238 154.076 38.3518 153.904 38.2078 153.792C38.0718 153.68 37.8758 153.588 37.6198 153.516C37.3638 153.436 37.0598 153.348 36.7078 153.252C36.2758 153.124 35.9118 152.988 35.6158 152.844C35.3198 152.7 35.0958 152.52 34.9438 152.304C34.7918 152.088 34.7158 151.816 34.7158 151.488C34.7158 151.088 34.8198 150.752 35.0278 150.48C35.2358 150.2 35.5198 149.988 35.8798 149.844C36.2478 149.7 36.6638 149.628 37.1278 149.628C37.5918 149.628 38.0118 149.7 38.3878 149.844C38.7638 149.988 39.0878 150.2 39.3598 150.48L38.8798 151.212C38.6318 150.956 38.3598 150.768 38.0638 150.648C37.7678 150.52 37.4358 150.456 37.0678 150.456C36.8518 150.456 36.6398 150.484 36.4318 150.54C36.2238 150.588 36.0518 150.68 35.9158 150.816C35.7798 150.944 35.7118 151.128 35.7118 151.368C35.7118 151.568 35.7638 151.728 35.8678 151.848C35.9798 151.96 36.1398 152.056 36.3478 152.136C36.5638 152.216 36.8238 152.304 37.1278 152.4C37.5998 152.536 38.0078 152.672 38.3518 152.808C38.7038 152.944 38.9758 153.12 39.1678 153.336C39.3598 153.552 39.4558 153.852 39.4558 154.236C39.4558 154.828 39.2318 155.292 38.7838 155.628C38.3358 155.956 37.7438 156.12 37.0078 156.12ZM43.9592 155.688C43.8712 155.728 43.7512 155.78 43.5992 155.844C43.4472 155.908 43.2712 155.964 43.0712 156.012C42.8712 156.06 42.6592 156.084 42.4352 156.084C42.1792 156.084 41.9432 156.04 41.7272 155.952C41.5112 155.856 41.3392 155.712 41.2112 155.52C41.0832 155.32 41.0192 155.072 41.0192 154.776V150.564H40.1672V149.736H41.0192V147.648H42.0752V149.736H43.4792V150.564H42.0752V154.452C42.0912 154.676 42.1672 154.844 42.3032 154.956C42.4392 155.06 42.5992 155.112 42.7832 155.112C42.9912 155.112 43.1832 155.076 43.3592 155.004C43.5352 154.932 43.6512 154.88 43.7072 154.848L43.9592 155.688ZM47.4811 154.188C47.4811 153.788 47.5931 153.444 47.8171 153.156C48.0491 152.86 48.3651 152.632 48.7651 152.472C49.1651 152.312 49.6291 152.232 50.1571 152.232C50.4371 152.232 50.7331 152.256 51.0451 152.304C51.3571 152.344 51.6331 152.408 51.8731 152.496V152.04C51.8731 151.56 51.7291 151.184 51.4411 150.912C51.1531 150.632 50.7451 150.492 50.2171 150.492C49.8731 150.492 49.5411 150.556 49.2211 150.684C48.9091 150.804 48.5771 150.98 48.2251 151.212L47.8411 150.468C48.2491 150.188 48.6571 149.98 49.0651 149.844C49.4731 149.7 49.8971 149.628 50.3371 149.628C51.1371 149.628 51.7691 149.852 52.2331 150.3C52.6971 150.74 52.9291 151.356 52.9291 152.148V154.8C52.9291 154.928 52.9531 155.024 53.0011 155.088C53.0571 155.144 53.1451 155.176 53.2651 155.184V156C53.1611 156.016 53.0691 156.028 52.9891 156.036C52.9171 156.044 52.8571 156.048 52.8091 156.048C52.5611 156.048 52.3731 155.98 52.2451 155.844C52.1251 155.708 52.0571 155.564 52.0411 155.412L52.0171 155.016C51.7451 155.368 51.3891 155.64 50.9491 155.832C50.5091 156.024 50.0731 156.12 49.6411 156.12C49.2251 156.12 48.8531 156.036 48.5251 155.868C48.1971 155.692 47.9411 155.46 47.7571 155.172C47.5731 154.876 47.4811 154.548 47.4811 154.188ZM51.5611 154.632C51.6571 154.52 51.7331 154.408 51.7891 154.296C51.8451 154.176 51.8731 154.076 51.8731 153.996V153.216C51.6251 153.12 51.3651 153.048 51.0931 153C50.8211 152.944 50.5531 152.916 50.2891 152.916C49.7531 152.916 49.3171 153.024 48.9811 153.24C48.6531 153.448 48.4891 153.736 48.4891 154.104C48.4891 154.304 48.5411 154.5 48.6451 154.692C48.7571 154.876 48.9171 155.028 49.1251 155.148C49.3411 155.268 49.6051 155.328 49.9171 155.328C50.2451 155.328 50.5571 155.264 50.8531 155.136C51.1491 155 51.3851 154.832 51.5611 154.632ZM56.2184 156L53.7584 149.736H54.8624L56.8304 154.992L58.7984 149.736H59.8304L57.3704 156H56.2184ZM60.2428 154.188C60.2428 153.788 60.3548 153.444 60.5788 153.156C60.8108 152.86 61.1268 152.632 61.5268 152.472C61.9268 152.312 62.3908 152.232 62.9188 152.232C63.1988 152.232 63.4948 152.256 63.8068 152.304C64.1188 152.344 64.3948 152.408 64.6348 152.496V152.04C64.6348 151.56 64.4908 151.184 64.2028 150.912C63.9148 150.632 63.5068 150.492 62.9788 150.492C62.6348 150.492 62.3028 150.556 61.9828 150.684C61.6708 150.804 61.3388 150.98 60.9868 151.212L60.6028 150.468C61.0108 150.188 61.4188 149.98 61.8268 149.844C62.2348 149.7 62.6588 149.628 63.0988 149.628C63.8988 149.628 64.5308 149.852 64.9948 150.3C65.4588 150.74 65.6908 151.356 65.6908 152.148V154.8C65.6908 154.928 65.7148 155.024 65.7628 155.088C65.8188 155.144 65.9068 155.176 66.0268 155.184V156C65.9228 156.016 65.8308 156.028 65.7508 156.036C65.6788 156.044 65.6188 156.048 65.5708 156.048C65.3228 156.048 65.1348 155.98 65.0068 155.844C64.8868 155.708 64.8188 155.564 64.8028 155.412L64.7788 155.016C64.5068 155.368 64.1508 155.64 63.7108 155.832C63.2708 156.024 62.8348 156.12 62.4028 156.12C61.9868 156.12 61.6148 156.036 61.2868 155.868C60.9588 155.692 60.7028 155.46 60.5188 155.172C60.3348 154.876 60.2428 154.548 60.2428 154.188ZM64.3228 154.632C64.4188 154.52 64.4948 154.408 64.5508 154.296C64.6068 154.176 64.6348 154.076 64.6348 153.996V153.216C64.3868 153.12 64.1268 153.048 63.8548 153C63.5828 152.944 63.3148 152.916 63.0508 152.916C62.5148 152.916 62.0788 153.024 61.7428 153.24C61.4148 153.448 61.2508 153.736 61.2508 154.104C61.2508 154.304 61.3028 154.5 61.4068 154.692C61.5188 154.876 61.6788 155.028 61.8868 155.148C62.1028 155.268 62.3668 155.328 62.6788 155.328C63.0068 155.328 63.3188 155.264 63.6148 155.136C63.9108 155 64.1468 154.832 64.3228 154.632ZM67.3793 156V149.736H68.4353V156H67.3793ZM67.3793 148.56V147.24H68.4353V148.56H67.3793ZM70.169 147.24H71.225V154.38C71.225 154.724 71.273 154.936 71.369 155.016C71.465 155.096 71.581 155.136 71.717 155.136C71.885 155.136 72.045 155.12 72.197 155.088C72.349 155.048 72.477 155.008 72.581 154.968L72.749 155.832C72.573 155.904 72.365 155.964 72.125 156.012C71.885 156.06 71.673 156.084 71.489 156.084C71.081 156.084 70.757 155.968 70.517 155.736C70.285 155.504 70.169 155.18 70.169 154.764V147.24ZM73.0866 154.188C73.0866 153.788 73.1986 153.444 73.4226 153.156C73.6546 152.86 73.9706 152.632 74.3706 152.472C74.7706 152.312 75.2346 152.232 75.7626 152.232C76.0426 152.232 76.3386 152.256 76.6506 152.304C76.9626 152.344 77.2386 152.408 77.4786 152.496V152.04C77.4786 151.56 77.3346 151.184 77.0466 150.912C76.7586 150.632 76.3506 150.492 75.8226 150.492C75.4786 150.492 75.1466 150.556 74.8266 150.684C74.5146 150.804 74.1826 150.98 73.8306 151.212L73.4466 150.468C73.8546 150.188 74.2626 149.98 74.6706 149.844C75.0786 149.7 75.5026 149.628 75.9426 149.628C76.7426 149.628 77.3746 149.852 77.8386 150.3C78.3026 150.74 78.5346 151.356 78.5346 152.148V154.8C78.5346 154.928 78.5586 155.024 78.6066 155.088C78.6626 155.144 78.7506 155.176 78.8706 155.184V156C78.7666 156.016 78.6746 156.028 78.5946 156.036C78.5226 156.044 78.4626 156.048 78.4146 156.048C78.1666 156.048 77.9786 155.98 77.8506 155.844C77.7306 155.708 77.6626 155.564 77.6466 155.412L77.6226 155.016C77.3506 155.368 76.9946 155.64 76.5546 155.832C76.1146 156.024 75.6786 156.12 75.2466 156.12C74.8306 156.12 74.4586 156.036 74.1306 155.868C73.8026 155.692 73.5466 155.46 73.3626 155.172C73.1786 154.876 73.0866 154.548 73.0866 154.188ZM77.1666 154.632C77.2626 154.52 77.3386 154.408 77.3946 154.296C77.4506 154.176 77.4786 154.076 77.4786 153.996V153.216C77.2306 153.12 76.9706 153.048 76.6986 153C76.4266 152.944 76.1586 152.916 75.8946 152.916C75.3586 152.916 74.9226 153.024 74.5866 153.24C74.2586 153.448 74.0946 153.736 74.0946 154.104C74.0946 154.304 74.1466 154.5 74.2506 154.692C74.3626 154.876 74.5226 155.028 74.7306 155.148C74.9466 155.268 75.2106 155.328 75.5226 155.328C75.8506 155.328 76.1626 155.264 76.4586 155.136C76.7546 155 76.9906 154.832 77.1666 154.632ZM83.4391 156.12C82.9511 156.12 82.5071 156 82.1071 155.76C81.7071 155.52 81.3911 155.208 81.1591 154.824V156H80.2231V147.24H81.2791V150.984C81.5431 150.576 81.8671 150.248 82.2511 150C82.6351 149.752 83.0831 149.628 83.5951 149.628C84.0271 149.628 84.4151 149.72 84.7591 149.904C85.1031 150.08 85.3951 150.324 85.6351 150.636C85.8831 150.94 86.0711 151.288 86.1991 151.68C86.3351 152.064 86.4031 152.468 86.4031 152.892C86.4031 153.332 86.3271 153.748 86.1751 154.14C86.0311 154.524 85.8231 154.868 85.5511 155.172C85.2791 155.468 84.9631 155.7 84.6031 155.868C84.2511 156.036 83.8631 156.12 83.4391 156.12ZM83.1751 155.208C83.4871 155.208 83.7751 155.144 84.0391 155.016C84.3031 154.888 84.5311 154.716 84.7231 154.5C84.9151 154.284 85.0631 154.036 85.1671 153.756C85.2711 153.476 85.3231 153.188 85.3231 152.892C85.3231 152.484 85.2351 152.1 85.0591 151.74C84.8911 151.38 84.6511 151.092 84.3391 150.876C84.0351 150.652 83.6791 150.54 83.2711 150.54C82.9751 150.54 82.6991 150.608 82.4431 150.744C82.1871 150.88 81.9591 151.06 81.7591 151.284C81.5671 151.5 81.4071 151.74 81.2791 152.004V153.816C81.3191 154.016 81.4031 154.2 81.5311 154.368C81.6591 154.536 81.8151 154.684 81.9991 154.812C82.1831 154.932 82.3751 155.028 82.5751 155.1C82.7831 155.172 82.9831 155.208 83.1751 155.208ZM87.7237 147.24H88.7797V154.38C88.7797 154.724 88.8277 154.936 88.9237 155.016C89.0197 155.096 89.1357 155.136 89.2717 155.136C89.4397 155.136 89.5997 155.12 89.7517 155.088C89.9037 155.048 90.0317 155.008 90.1357 154.968L90.3037 155.832C90.1277 155.904 89.9197 155.964 89.6797 156.012C89.4397 156.06 89.2277 156.084 89.0437 156.084C88.6357 156.084 88.3117 155.968 88.0717 155.736C87.8397 155.504 87.7237 155.18 87.7237 154.764V147.24ZM93.9053 156.12C93.4333 156.12 93.0013 156.036 92.6093 155.868C92.2253 155.692 91.8893 155.456 91.6013 155.16C91.3213 154.856 91.1013 154.508 90.9413 154.116C90.7893 153.724 90.7133 153.308 90.7133 152.868C90.7133 152.276 90.8493 151.736 91.1213 151.248C91.3933 150.76 91.7693 150.368 92.2493 150.072C92.7373 149.776 93.2933 149.628 93.9173 149.628C94.5493 149.628 95.0973 149.78 95.5613 150.084C96.0333 150.38 96.3973 150.772 96.6533 151.26C96.9173 151.74 97.0493 152.26 97.0493 152.82C97.0493 152.9 97.0453 152.98 97.0373 153.06C97.0373 153.132 97.0333 153.188 97.0253 153.228H91.8293C91.8613 153.636 91.9733 154 92.1653 154.32C92.3653 154.632 92.6213 154.88 92.9333 155.064C93.2453 155.24 93.5813 155.328 93.9413 155.328C94.3253 155.328 94.6853 155.232 95.0213 155.04C95.3653 154.848 95.6013 154.596 95.7293 154.284L96.6413 154.536C96.5053 154.84 96.3013 155.112 96.0293 155.352C95.7653 155.592 95.4493 155.78 95.0813 155.916C94.7213 156.052 94.3293 156.12 93.9053 156.12ZM91.7933 152.496H96.0653C96.0333 152.088 95.9173 151.728 95.7173 151.416C95.5173 151.104 95.2613 150.86 94.9493 150.684C94.6373 150.508 94.2933 150.42 93.9173 150.42C93.5493 150.42 93.2093 150.508 92.8973 150.684C92.5853 150.86 92.3293 151.104 92.1293 151.416C91.9373 151.728 91.8253 152.088 91.7933 152.496ZM106.694 156H105.638V152.496C105.638 151.832 105.534 151.348 105.326 151.044C105.126 150.732 104.818 150.576 104.402 150.576C104.114 150.576 103.826 150.648 103.538 150.792C103.258 150.936 103.006 151.132 102.782 151.38C102.566 151.62 102.41 151.9 102.314 152.22V156H101.258V149.736H102.218V151.08C102.386 150.784 102.602 150.528 102.866 150.312C103.13 150.096 103.43 149.928 103.766 149.808C104.102 149.688 104.454 149.628 104.822 149.628C105.182 149.628 105.482 149.696 105.722 149.832C105.97 149.96 106.162 150.144 106.298 150.384C106.442 150.616 106.542 150.892 106.598 151.212C106.662 151.532 106.694 151.88 106.694 152.256V156ZM111.072 156.12C110.6 156.12 110.172 156.036 109.788 155.868C109.404 155.692 109.072 155.456 108.792 155.16C108.512 154.856 108.296 154.508 108.144 154.116C107.992 153.724 107.916 153.312 107.916 152.88C107.916 152.44 107.992 152.024 108.144 151.632C108.296 151.24 108.512 150.896 108.792 150.6C109.072 150.296 109.404 150.06 109.788 149.892C110.18 149.716 110.608 149.628 111.072 149.628C111.544 149.628 111.972 149.716 112.356 149.892C112.74 150.06 113.072 150.296 113.352 150.6C113.64 150.896 113.86 151.24 114.012 151.632C114.164 152.024 114.24 152.44 114.24 152.88C114.24 153.312 114.164 153.724 114.012 154.116C113.86 154.508 113.644 154.856 113.364 155.16C113.084 155.456 112.748 155.692 112.356 155.868C111.972 156.036 111.544 156.12 111.072 156.12ZM108.996 152.892C108.996 153.324 109.088 153.716 109.272 154.068C109.464 154.42 109.716 154.7 110.028 154.908C110.34 155.108 110.688 155.208 111.072 155.208C111.456 155.208 111.804 155.104 112.116 154.896C112.436 154.688 112.688 154.408 112.872 154.056C113.064 153.696 113.16 153.3 113.16 152.868C113.16 152.436 113.064 152.044 112.872 151.692C112.688 151.34 112.436 151.06 112.116 150.852C111.804 150.644 111.456 150.54 111.072 150.54C110.688 150.54 110.34 150.648 110.028 150.864C109.716 151.072 109.464 151.352 109.272 151.704C109.088 152.056 108.996 152.452 108.996 152.892ZM123.157 149.736H124.177L121.513 156H120.589L119.377 153.048L118.177 156H117.253L114.589 149.736H115.597L117.757 154.956L118.765 152.388L117.709 149.748H118.633L119.377 151.74L120.121 149.748H121.045L120.001 152.388L121.009 154.956L123.157 149.736ZM124.202 156V154.656H125.09V156H124.202Z" fill="#6F8300"/>
<path d="M51.5 69.5L54.3107 71.5076C54.7084 71.7917 55.2533 71.7467 55.599 71.401L58.3385 68.6615C58.7107 68.2893 59.3079 68.2694 59.7041 68.6161L62.379 70.9566C62.7395 71.2721 63.2732 71.2875 63.6514 70.9934L66.8032 68.542C67.2013 68.2324 67.7676 68.2676 68.1242 68.6242L70.901 71.401C71.2467 71.7467 71.7916 71.7917 72.1893 71.5076L75 69.5" stroke="#5C6818" stroke-linecap="round" stroke-linejoin="round"/>
<path d="M41 50.5L45 54M49 57.5L45 54M45 54L49 50.5M45 54L41 57.5" stroke="black" stroke-width="1.5" stroke-linecap="round" stroke-linejoin="round"/>
<path d="M78 50.5L82 54M86 57.5L82 54M82 54L86 50.5M82 54L78 57.5" stroke="black" stroke-width="1.5" stroke-linecap="round" stroke-linejoin="round"/>
<rect x="22" y="16" width="83" height="82" rx="6" stroke="#A6A6A6" stroke-width="3"/>
<circle cx="116" cy="40" r="5" fill="#D9FF00" stroke="#7B9201" stroke-width="2"/>
<circle cx="30.5" cy="4.5" r="4.5" fill="#7B9100"/>
<circle cx="9" cy="106" r="4" fill="#B6D600"/>
<path d="M76.1 12.5V22.5" stroke="#C6DE41" stroke-width="3" stroke-linecap="round" stroke-linejoin="round"/>
<path d="M87 4L87 22" stroke="#C6DE41" stroke-width="3" stroke-linecap="round" stroke-linejoin="round"/>
<path d="M93 14L93 32" stroke="#C6DE41" stroke-width="3" stroke-linecap="round" stroke-linejoin="round"/>
<path d="M81 16L81 28" stroke="#C6DE41" stroke-width="3" stroke-linecap="round" stroke-linejoin="round"/>
</svg>
