<svg width="117" height="159" viewBox="0 0 117 159" fill="none" xmlns="http://www.w3.org/2000/svg">
<path d="M28.4348 142.099C27.417 142.099 26.4984 141.901 25.679 141.504C24.8595 141.108 24.1523 140.573 23.5576 139.898C22.9628 139.211 22.5002 138.445 22.1697 137.599C21.8525 136.739 21.6939 135.861 21.6939 134.962C21.6939 134.023 21.8657 133.131 22.2094 132.285C22.553 131.426 23.0289 130.666 23.6369 130.005C24.2449 129.331 24.9586 128.802 25.7781 128.419C26.6108 128.023 27.5096 127.824 28.4744 127.824C29.479 127.824 30.391 128.029 31.2104 128.439C32.0431 128.849 32.7503 129.397 33.3318 130.085C33.9266 130.772 34.3826 131.538 34.6998 132.384C35.0303 133.23 35.1955 134.096 35.1955 134.982C35.1955 135.92 35.0237 136.819 34.68 137.678C34.3496 138.524 33.8803 139.284 33.2723 139.958C32.6643 140.619 31.944 141.141 31.1113 141.524C30.2918 141.907 29.3997 142.099 28.4348 142.099ZM23.9541 134.962C23.9541 135.623 24.0598 136.264 24.2713 136.885C24.4828 137.506 24.7802 138.061 25.1635 138.55C25.56 139.026 26.0358 139.403 26.591 139.68C27.1461 139.958 27.7673 140.097 28.4546 140.097C29.1683 140.097 29.8028 139.951 30.3579 139.661C30.913 139.37 31.3757 138.98 31.7457 138.491C32.129 137.989 32.4198 137.433 32.6181 136.825C32.8163 136.204 32.9155 135.583 32.9155 134.962C32.9155 134.301 32.8097 133.666 32.5983 133.058C32.4 132.437 32.1026 131.889 31.7061 131.413C31.3096 130.924 30.8337 130.541 30.2786 130.263C29.7367 129.985 29.1287 129.847 28.4546 129.847C27.7409 129.847 27.1064 129.992 26.5513 130.283C25.9962 130.574 25.527 130.963 25.1437 131.453C24.7603 131.942 24.463 132.49 24.2515 133.098C24.0532 133.706 23.9541 134.327 23.9541 134.962ZM43.3431 142.099C42.3253 142.099 41.4067 141.901 40.5872 141.504C39.7678 141.108 39.0606 140.573 38.4659 139.898C37.8711 139.211 37.4085 138.445 37.078 137.599C36.7608 136.739 36.6022 135.861 36.6022 134.962C36.6022 134.023 36.774 133.131 37.1177 132.285C37.4613 131.426 37.9372 130.666 38.5452 130.005C39.1532 129.331 39.8669 128.802 40.6864 128.419C41.5191 128.023 42.4179 127.824 43.3827 127.824C44.3872 127.824 45.2992 128.029 46.1187 128.439C46.9514 128.849 47.6585 129.397 48.2401 130.085C48.8349 130.772 49.2909 131.538 49.6081 132.384C49.9385 133.23 50.1038 134.096 50.1038 134.982C50.1038 135.92 49.9319 136.819 49.5883 137.678C49.2579 138.524 48.7886 139.284 48.1806 139.958C47.5726 140.619 46.8523 141.141 46.0196 141.524C45.2001 141.907 44.3079 142.099 43.3431 142.099ZM38.8624 134.962C38.8624 135.623 38.9681 136.264 39.1796 136.885C39.3911 137.506 39.6885 138.061 40.0718 138.55C40.4683 139.026 40.9441 139.403 41.4992 139.68C42.0544 139.958 42.6756 140.097 43.3629 140.097C44.0766 140.097 44.7111 139.951 45.2662 139.661C45.8213 139.37 46.2839 138.98 46.654 138.491C47.0373 137.989 47.3281 137.433 47.5264 136.825C47.7246 136.204 47.8238 135.583 47.8238 134.962C47.8238 134.301 47.718 133.666 47.5065 133.058C47.3083 132.437 47.0109 131.889 46.6144 131.413C46.2179 130.924 45.742 130.541 45.1869 130.263C44.645 129.985 44.037 129.847 43.3629 129.847C42.6492 129.847 42.0147 129.992 41.4596 130.283C40.9045 130.574 40.4352 130.963 40.0519 131.453C39.6686 131.942 39.3712 132.49 39.1598 133.098C38.9615 133.706 38.8624 134.327 38.8624 134.962ZM58.2514 142.099C57.2336 142.099 56.315 141.901 55.4955 141.504C54.6761 141.108 53.9689 140.573 53.3741 139.898C52.7794 139.211 52.3167 138.445 51.9863 137.599C51.6691 136.739 51.5105 135.861 51.5105 134.962C51.5105 134.023 51.6823 133.131 52.026 132.285C52.3696 131.426 52.8454 130.666 53.4534 130.005C54.0614 129.331 54.7752 128.802 55.5947 128.419C56.4274 128.023 57.3261 127.824 58.291 127.824C59.2955 127.824 60.2075 128.029 61.027 128.439C61.8597 128.849 62.5668 129.397 63.1484 130.085C63.7432 130.772 64.1992 131.538 64.5164 132.384C64.8468 133.23 65.0121 134.096 65.0121 134.982C65.0121 135.92 64.8402 136.819 64.4966 137.678C64.1661 138.524 63.6969 139.284 63.0889 139.958C62.4809 140.619 61.7606 141.141 60.9279 141.524C60.1084 141.907 59.2162 142.099 58.2514 142.099ZM53.7707 134.962C53.7707 135.623 53.8764 136.264 54.0879 136.885C54.2994 137.506 54.5967 138.061 54.9801 138.55C55.3766 139.026 55.8524 139.403 56.4075 139.68C56.9627 139.958 57.5839 140.097 58.2712 140.097C58.9849 140.097 59.6194 139.951 60.1745 139.661C60.7296 139.37 61.1922 138.98 61.5623 138.491C61.9456 137.989 62.2364 137.433 62.4347 136.825C62.6329 136.204 62.7321 135.583 62.7321 134.962C62.7321 134.301 62.6263 133.666 62.4148 133.058C62.2166 132.437 61.9192 131.889 61.5227 131.413C61.1261 130.924 60.6503 130.541 60.0952 130.263C59.5533 129.985 58.9453 129.847 58.2712 129.847C57.5574 129.847 56.923 129.992 56.3679 130.283C55.8127 130.574 55.3435 130.963 54.9602 131.453C54.5769 131.942 54.2795 132.49 54.0681 133.098C53.8698 133.706 53.7707 134.327 53.7707 134.962ZM67.3109 142V127.923H73.2191C73.8536 127.923 74.4351 128.056 74.9638 128.32C75.4925 128.584 75.9551 128.935 76.3516 129.371C76.7482 129.807 77.0522 130.296 77.2636 130.838C77.4751 131.38 77.5809 131.935 77.5809 132.503C77.5809 133.283 77.4024 134.03 77.0456 134.744C76.7019 135.444 76.2063 136.013 75.5586 136.449C74.9242 136.885 74.184 137.103 73.3381 137.103H69.5315V142H67.3109ZM69.5315 135.14H73.1993C73.6223 135.14 73.9923 135.028 74.3096 134.803C74.6268 134.565 74.8713 134.248 75.0431 133.851C75.2282 133.455 75.3207 133.006 75.3207 132.503C75.3207 131.988 75.2149 131.532 75.0035 131.135C74.792 130.739 74.5144 130.435 74.1708 130.223C73.8403 129.999 73.4769 129.886 73.0803 129.886H69.5315V135.14ZM87.9905 131.234C87.8583 131.089 87.6667 130.937 87.4155 130.778C87.1644 130.607 86.867 130.448 86.5234 130.303C86.1797 130.157 85.8096 130.038 85.4131 129.946C85.0166 129.853 84.6068 129.807 84.1839 129.807C83.2587 129.807 82.5714 129.979 82.122 130.322C81.6726 130.666 81.4479 131.142 81.4479 131.75C81.4479 132.199 81.5734 132.556 81.8246 132.821C82.0757 133.072 82.459 133.283 82.9745 133.455C83.49 133.627 84.1376 133.812 84.9174 134.01C85.8691 134.235 86.6952 134.506 87.3957 134.823C88.0962 135.127 88.6315 135.537 89.0016 136.052C89.3717 136.568 89.5567 137.248 89.5567 138.094C89.5567 138.808 89.4246 139.423 89.1602 139.938C88.8959 140.454 88.5258 140.877 88.05 141.207C87.5741 141.524 87.0256 141.762 86.4044 141.921C85.7832 142.066 85.1157 142.139 84.402 142.139C83.7014 142.139 83.0009 142.066 82.3004 141.921C81.6131 141.775 80.9522 141.564 80.3178 141.286C79.6966 140.995 79.1216 140.645 78.5929 140.235L79.6041 138.332C79.7759 138.504 80.0204 138.696 80.3376 138.907C80.6681 139.105 81.0447 139.297 81.4677 139.482C81.9039 139.667 82.3731 139.826 82.8754 139.958C83.3908 140.077 83.9129 140.136 84.4416 140.136C85.3272 140.136 86.0013 139.984 86.4639 139.68C86.9397 139.363 87.1776 138.914 87.1776 138.332C87.1776 137.856 87.0256 137.48 86.7216 137.202C86.4176 136.911 85.9748 136.667 85.3933 136.469C84.8117 136.27 84.1178 136.072 83.3115 135.874C82.3863 135.623 81.6131 135.352 80.9919 135.061C80.3707 134.757 79.9014 134.374 79.5842 133.911C79.2802 133.435 79.1282 132.834 79.1282 132.107C79.1282 131.182 79.3529 130.402 79.8023 129.767C80.2517 129.12 80.8597 128.637 81.6263 128.32C82.4061 127.99 83.2785 127.824 84.2434 127.824C84.8778 127.824 85.4792 127.897 86.0475 128.042C86.6159 128.175 87.1446 128.36 87.6336 128.598C88.1359 128.835 88.5919 129.106 89.0016 129.41L87.9905 131.234ZM91.9226 136.984V127.785H94.1034V136.984H91.9226ZM91.9226 142V139.284H94.1034V142H91.9226Z" fill="#A6A6A6"/>
<path d="M7.1 149.472V156H6.02V147.48H6.932L12.14 154.14V147.492H13.22V156H12.236L7.1 149.472ZM17.7169 156.12C17.2449 156.12 16.8169 156.036 16.4329 155.868C16.0489 155.692 15.7169 155.456 15.4369 155.16C15.1569 154.856 14.9409 154.508 14.7889 154.116C14.6369 153.724 14.5609 153.312 14.5609 152.88C14.5609 152.44 14.6369 152.024 14.7889 151.632C14.9409 151.24 15.1569 150.896 15.4369 150.6C15.7169 150.296 16.0489 150.06 16.4329 149.892C16.8249 149.716 17.2529 149.628 17.7169 149.628C18.1889 149.628 18.6169 149.716 19.0009 149.892C19.3849 150.06 19.7169 150.296 19.9969 150.6C20.2849 150.896 20.5049 151.24 20.6569 151.632C20.8089 152.024 20.8849 152.44 20.8849 152.88C20.8849 153.312 20.8089 153.724 20.6569 154.116C20.5049 154.508 20.2889 154.856 20.0089 155.16C19.7289 155.456 19.3929 155.692 19.0009 155.868C18.6169 156.036 18.1889 156.12 17.7169 156.12ZM15.6409 152.892C15.6409 153.324 15.7329 153.716 15.9169 154.068C16.1089 154.42 16.3609 154.7 16.6729 154.908C16.9849 155.108 17.3329 155.208 17.7169 155.208C18.1009 155.208 18.4489 155.104 18.7609 154.896C19.0809 154.688 19.3329 154.408 19.5169 154.056C19.7089 153.696 19.8049 153.3 19.8049 152.868C19.8049 152.436 19.7089 152.044 19.5169 151.692C19.3329 151.34 19.0809 151.06 18.7609 150.852C18.4489 150.644 18.1009 150.54 17.7169 150.54C17.3329 150.54 16.9849 150.648 16.6729 150.864C16.3609 151.072 16.1089 151.352 15.9169 151.704C15.7329 152.056 15.6409 152.452 15.6409 152.892ZM28.5717 156.12C28.0597 156.12 27.6037 155.992 27.2037 155.736C26.8037 155.48 26.4877 155.156 26.2557 154.764V158.556H25.1997V149.736H26.1357V150.912C26.3837 150.528 26.7077 150.22 27.1077 149.988C27.5077 149.748 27.9437 149.628 28.4157 149.628C28.8477 149.628 29.2437 149.716 29.6037 149.892C29.9637 150.068 30.2757 150.308 30.5397 150.612C30.8037 150.916 31.0077 151.264 31.1517 151.656C31.3037 152.04 31.3797 152.444 31.3797 152.868C31.3797 153.46 31.2597 154.004 31.0197 154.5C30.7877 154.996 30.4597 155.392 30.0357 155.688C29.6117 155.976 29.1237 156.12 28.5717 156.12ZM28.2477 155.208C28.5597 155.208 28.8397 155.144 29.0877 155.016C29.3437 154.88 29.5597 154.704 29.7357 154.488C29.9197 154.264 30.0597 154.012 30.1557 153.732C30.2517 153.452 30.2997 153.164 30.2997 152.868C30.2997 152.556 30.2437 152.26 30.1317 151.98C30.0277 151.7 29.8757 151.452 29.6757 151.236C29.4837 151.02 29.2557 150.852 28.9917 150.732C28.7357 150.604 28.4557 150.54 28.1517 150.54C27.9597 150.54 27.7597 150.576 27.5517 150.648C27.3517 150.72 27.1597 150.824 26.9757 150.96C26.7917 151.088 26.6357 151.236 26.5077 151.404C26.3797 151.572 26.2957 151.752 26.2557 151.944V153.732C26.3757 154.004 26.5357 154.252 26.7357 154.476C26.9357 154.7 27.1677 154.88 27.4317 155.016C27.6957 155.144 27.9677 155.208 28.2477 155.208ZM35.4122 156.12C34.9402 156.12 34.5122 156.036 34.1282 155.868C33.7442 155.692 33.4122 155.456 33.1322 155.16C32.8522 154.856 32.6362 154.508 32.4842 154.116C32.3322 153.724 32.2562 153.312 32.2562 152.88C32.2562 152.44 32.3322 152.024 32.4842 151.632C32.6362 151.24 32.8522 150.896 33.1322 150.6C33.4122 150.296 33.7442 150.06 34.1282 149.892C34.5202 149.716 34.9482 149.628 35.4122 149.628C35.8842 149.628 36.3122 149.716 36.6962 149.892C37.0802 150.06 37.4122 150.296 37.6922 150.6C37.9802 150.896 38.2002 151.24 38.3522 151.632C38.5042 152.024 38.5802 152.44 38.5802 152.88C38.5802 153.312 38.5042 153.724 38.3522 154.116C38.2002 154.508 37.9842 154.856 37.7042 155.16C37.4242 155.456 37.0882 155.692 36.6962 155.868C36.3122 156.036 35.8842 156.12 35.4122 156.12ZM33.3362 152.892C33.3362 153.324 33.4282 153.716 33.6122 154.068C33.8042 154.42 34.0562 154.7 34.3682 154.908C34.6802 155.108 35.0282 155.208 35.4122 155.208C35.7962 155.208 36.1442 155.104 36.4562 154.896C36.7762 154.688 37.0282 154.408 37.2122 154.056C37.4042 153.696 37.5002 153.3 37.5002 152.868C37.5002 152.436 37.4042 152.044 37.2122 151.692C37.0282 151.34 36.7762 151.06 36.4562 150.852C36.1442 150.644 35.7962 150.54 35.4122 150.54C35.0282 150.54 34.6802 150.648 34.3682 150.864C34.0562 151.072 33.8042 151.352 33.6122 151.704C33.4282 152.056 33.3362 152.452 33.3362 152.892ZM42.0078 156.12C41.4878 156.12 40.9998 156.036 40.5438 155.868C40.0878 155.692 39.6958 155.432 39.3678 155.088L39.7758 154.344C40.1358 154.68 40.4958 154.92 40.8558 155.064C41.2158 155.208 41.5838 155.28 41.9598 155.28C42.3918 155.28 42.7438 155.2 43.0158 155.04C43.2878 154.872 43.4238 154.628 43.4238 154.308C43.4238 154.076 43.3518 153.904 43.2078 153.792C43.0718 153.68 42.8758 153.588 42.6198 153.516C42.3638 153.436 42.0598 153.348 41.7078 153.252C41.2758 153.124 40.9118 152.988 40.6158 152.844C40.3198 152.7 40.0958 152.52 39.9438 152.304C39.7918 152.088 39.7158 151.816 39.7158 151.488C39.7158 151.088 39.8198 150.752 40.0278 150.48C40.2358 150.2 40.5198 149.988 40.8798 149.844C41.2478 149.7 41.6638 149.628 42.1278 149.628C42.5918 149.628 43.0118 149.7 43.3878 149.844C43.7638 149.988 44.0878 150.2 44.3598 150.48L43.8798 151.212C43.6318 150.956 43.3598 150.768 43.0638 150.648C42.7678 150.52 42.4358 150.456 42.0678 150.456C41.8518 150.456 41.6398 150.484 41.4318 150.54C41.2238 150.588 41.0518 150.68 40.9158 150.816C40.7798 150.944 40.7118 151.128 40.7118 151.368C40.7118 151.568 40.7638 151.728 40.8678 151.848C40.9798 151.96 41.1398 152.056 41.3478 152.136C41.5638 152.216 41.8238 152.304 42.1278 152.4C42.5998 152.536 43.0078 152.672 43.3518 152.808C43.7038 152.944 43.9758 153.12 44.1678 153.336C44.3598 153.552 44.4558 153.852 44.4558 154.236C44.4558 154.828 44.2318 155.292 43.7838 155.628C43.3358 155.956 42.7438 156.12 42.0078 156.12ZM48.9592 155.688C48.8712 155.728 48.7512 155.78 48.5992 155.844C48.4472 155.908 48.2712 155.964 48.0712 156.012C47.8712 156.06 47.6592 156.084 47.4352 156.084C47.1792 156.084 46.9432 156.04 46.7272 155.952C46.5112 155.856 46.3392 155.712 46.2112 155.52C46.0832 155.32 46.0192 155.072 46.0192 154.776V150.564H45.1672V149.736H46.0192V147.648H47.0752V149.736H48.4792V150.564H47.0752V154.452C47.0912 154.676 47.1672 154.844 47.3032 154.956C47.4392 155.06 47.5992 155.112 47.7832 155.112C47.9912 155.112 48.1832 155.076 48.3592 155.004C48.5352 154.932 48.6512 154.88 48.7072 154.848L48.9592 155.688ZM52.9731 156V149.736H54.0291V156H52.9731ZM52.9731 148.56V147.24H54.0291V148.56H52.9731ZM61.1747 156H60.1187V152.496C60.1187 151.832 60.0147 151.348 59.8067 151.044C59.6067 150.732 59.2987 150.576 58.8827 150.576C58.5947 150.576 58.3067 150.648 58.0187 150.792C57.7387 150.936 57.4867 151.132 57.2627 151.38C57.0467 151.62 56.8907 151.9 56.7947 152.22V156H55.7387V149.736H56.6987V151.08C56.8667 150.784 57.0827 150.528 57.3467 150.312C57.6107 150.096 57.9107 149.928 58.2467 149.808C58.5827 149.688 58.9347 149.628 59.3027 149.628C59.6627 149.628 59.9627 149.696 60.2027 149.832C60.4507 149.96 60.6427 150.144 60.7787 150.384C60.9227 150.616 61.0227 150.892 61.0787 151.212C61.1427 151.532 61.1747 151.88 61.1747 152.256V156ZM66.0328 156.12C65.5448 156.12 65.1008 156 64.7008 155.76C64.3008 155.52 63.9848 155.208 63.7528 154.824V156H62.8168V147.24H63.8728V150.984C64.1368 150.576 64.4608 150.248 64.8448 150C65.2288 149.752 65.6768 149.628 66.1888 149.628C66.6208 149.628 67.0088 149.72 67.3528 149.904C67.6968 150.08 67.9888 150.324 68.2288 150.636C68.4768 150.94 68.6648 151.288 68.7928 151.68C68.9288 152.064 68.9968 152.468 68.9968 152.892C68.9968 153.332 68.9208 153.748 68.7688 154.14C68.6248 154.524 68.4168 154.868 68.1448 155.172C67.8728 155.468 67.5568 155.7 67.1968 155.868C66.8448 156.036 66.4568 156.12 66.0328 156.12ZM65.7688 155.208C66.0808 155.208 66.3688 155.144 66.6328 155.016C66.8968 154.888 67.1248 154.716 67.3168 154.5C67.5088 154.284 67.6568 154.036 67.7608 153.756C67.8648 153.476 67.9168 153.188 67.9168 152.892C67.9168 152.484 67.8288 152.1 67.6528 151.74C67.4848 151.38 67.2448 151.092 66.9328 150.876C66.6288 150.652 66.2728 150.54 65.8648 150.54C65.5688 150.54 65.2928 150.608 65.0368 150.744C64.7808 150.88 64.5528 151.06 64.3528 151.284C64.1608 151.5 64.0008 151.74 63.8728 152.004V153.816C63.9128 154.016 63.9968 154.2 64.1248 154.368C64.2528 154.536 64.4088 154.684 64.5928 154.812C64.7768 154.932 64.9688 155.028 65.1688 155.1C65.3768 155.172 65.5768 155.208 65.7688 155.208ZM73.0294 156.12C72.5574 156.12 72.1294 156.036 71.7454 155.868C71.3614 155.692 71.0294 155.456 70.7494 155.16C70.4694 154.856 70.2534 154.508 70.1014 154.116C69.9494 153.724 69.8734 153.312 69.8734 152.88C69.8734 152.44 69.9494 152.024 70.1014 151.632C70.2534 151.24 70.4694 150.896 70.7494 150.6C71.0294 150.296 71.3614 150.06 71.7454 149.892C72.1374 149.716 72.5654 149.628 73.0294 149.628C73.5014 149.628 73.9294 149.716 74.3134 149.892C74.6974 150.06 75.0294 150.296 75.3094 150.6C75.5974 150.896 75.8174 151.24 75.9694 151.632C76.1214 152.024 76.1974 152.44 76.1974 152.88C76.1974 153.312 76.1214 153.724 75.9694 154.116C75.8174 154.508 75.6014 154.856 75.3214 155.16C75.0414 155.456 74.7054 155.692 74.3134 155.868C73.9294 156.036 73.5014 156.12 73.0294 156.12ZM70.9534 152.892C70.9534 153.324 71.0454 153.716 71.2294 154.068C71.4214 154.42 71.6734 154.7 71.9854 154.908C72.2974 155.108 72.6454 155.208 73.0294 155.208C73.4134 155.208 73.7614 155.104 74.0734 154.896C74.3934 154.688 74.6454 154.408 74.8294 154.056C75.0214 153.696 75.1174 153.3 75.1174 152.868C75.1174 152.436 75.0214 152.044 74.8294 151.692C74.6454 151.34 74.3934 151.06 74.0734 150.852C73.7614 150.644 73.4134 150.54 73.0294 150.54C72.6454 150.54 72.2974 150.648 71.9854 150.864C71.6734 151.072 71.4214 151.352 71.2294 151.704C71.0454 152.056 70.9534 152.452 70.9534 152.892ZM77.652 149.736L79.308 152.04L79.404 152.232L79.512 152.04L81.156 149.736H82.332L80.016 152.88L82.344 156H81.168L79.512 153.708L79.404 153.528L79.308 153.708L77.652 156H76.476L78.804 152.88L76.488 149.736H77.652ZM91.8075 156H90.7515V152.496C90.7515 151.832 90.6475 151.348 90.4395 151.044C90.2395 150.732 89.9315 150.576 89.5155 150.576C89.2275 150.576 88.9395 150.648 88.6515 150.792C88.3715 150.936 88.1195 151.132 87.8955 151.38C87.6795 151.62 87.5235 151.9 87.4275 152.22V156H86.3715V149.736H87.3315V151.08C87.4995 150.784 87.7155 150.528 87.9795 150.312C88.2435 150.096 88.5435 149.928 88.8795 149.808C89.2155 149.688 89.5675 149.628 89.9355 149.628C90.2955 149.628 90.5955 149.696 90.8355 149.832C91.0835 149.96 91.2755 150.144 91.4115 150.384C91.5555 150.616 91.6555 150.892 91.7115 151.212C91.7755 151.532 91.8075 151.88 91.8075 152.256V156ZM96.1857 156.12C95.7137 156.12 95.2857 156.036 94.9017 155.868C94.5177 155.692 94.1857 155.456 93.9057 155.16C93.6257 154.856 93.4097 154.508 93.2577 154.116C93.1057 153.724 93.0297 153.312 93.0297 152.88C93.0297 152.44 93.1057 152.024 93.2577 151.632C93.4097 151.24 93.6257 150.896 93.9057 150.6C94.1857 150.296 94.5177 150.06 94.9017 149.892C95.2937 149.716 95.7217 149.628 96.1857 149.628C96.6577 149.628 97.0857 149.716 97.4697 149.892C97.8537 150.06 98.1857 150.296 98.4657 150.6C98.7537 150.896 98.9737 151.24 99.1257 151.632C99.2777 152.024 99.3537 152.44 99.3537 152.88C99.3537 153.312 99.2777 153.724 99.1257 154.116C98.9737 154.508 98.7577 154.856 98.4777 155.16C98.1977 155.456 97.8617 155.692 97.4697 155.868C97.0857 156.036 96.6577 156.12 96.1857 156.12ZM94.1097 152.892C94.1097 153.324 94.2017 153.716 94.3857 154.068C94.5777 154.42 94.8297 154.7 95.1417 154.908C95.4537 155.108 95.8017 155.208 96.1857 155.208C96.5697 155.208 96.9177 155.104 97.2297 154.896C97.5497 154.688 97.8017 154.408 97.9857 154.056C98.1777 153.696 98.2737 153.3 98.2737 152.868C98.2737 152.436 98.1777 152.044 97.9857 151.692C97.8017 151.34 97.5497 151.06 97.2297 150.852C96.9177 150.644 96.5697 150.54 96.1857 150.54C95.8017 150.54 95.4537 150.648 95.1417 150.864C94.8297 151.072 94.5777 151.352 94.3857 151.704C94.2017 152.056 94.1097 152.452 94.1097 152.892ZM108.27 149.736H109.29L106.626 156H105.702L104.49 153.048L103.29 156H102.366L99.7023 149.736H100.71L102.87 154.956L103.878 152.388L102.822 149.748H103.746L104.49 151.74L105.234 149.748H106.158L105.114 152.388L106.122 154.956L108.27 149.736ZM109.315 156V154.656H110.203V156H109.315Z" fill="#6F8300"/>
<path d="M46.5 69.5L49.3107 71.5076C49.7084 71.7917 50.2533 71.7467 50.599 71.401L53.3385 68.6615C53.7107 68.2893 54.3079 68.2694 54.7041 68.6161L57.379 70.9566C57.7395 71.2721 58.2732 71.2875 58.6514 70.9934L61.8032 68.542C62.2013 68.2324 62.7676 68.2676 63.1242 68.6242L65.901 71.401C66.2467 71.7467 66.7916 71.7917 67.1893 71.5076L70 69.5" stroke="#5C6818" stroke-linecap="round" stroke-linejoin="round"/>
<path d="M36 50.5L40 54M44 57.5L40 54M40 54L44 50.5M40 54L36 57.5" stroke="black" stroke-width="1.5" stroke-linecap="round" stroke-linejoin="round"/>
<path d="M73 50.5L77 54M81 57.5L77 54M77 54L81 50.5M77 54L73 57.5" stroke="black" stroke-width="1.5" stroke-linecap="round" stroke-linejoin="round"/>
<rect x="17" y="16" width="83" height="82" rx="6" stroke="#A6A6A6" stroke-width="3"/>
<circle cx="111" cy="40" r="5" fill="#D9FF00" stroke="#7B9201" stroke-width="2"/>
<circle cx="25.5" cy="4.5" r="4.5" fill="#7B9100"/>
<circle cx="4" cy="106" r="4" fill="#B6D600"/>
<path d="M71.1 12.5V22.5" stroke="#C6DE41" stroke-width="3" stroke-linecap="round" stroke-linejoin="round"/>
<path d="M82 4L82 22" stroke="#C6DE41" stroke-width="3" stroke-linecap="round" stroke-linejoin="round"/>
<path d="M88 14L88 32" stroke="#C6DE41" stroke-width="3" stroke-linecap="round" stroke-linejoin="round"/>
<path d="M76 16L76 28" stroke="#C6DE41" stroke-width="3" stroke-linecap="round" stroke-linejoin="round"/>
</svg>
